<svg width="160" height="49" viewBox="0 0 160 49" fill="none" xmlns="http://www.w3.org/2000/svg">
<path d="M0.160583 32.5546L5.56929 22.3204L12.1059 32.4568L13.0741 48.904L9.99534 48.4581L0.160583 32.5546Z" fill="url(#paint0_linear_87_282)"/>
<path d="M15.2261 19.2905L18.7678 0.134521L39.4795 25.5286L13.0751 48.9076L15.2261 19.2905Z" fill="url(#paint1_linear_87_282)"/>
<path fill-rule="evenodd" clip-rule="evenodd" d="M39.4792 25.5293L13.0745 48.9081L24.9116 47.0053L39.4792 25.5293Z" fill="#3B6BB2"/>
<path fill-rule="evenodd" clip-rule="evenodd" d="M13.3165 9.43427L16.4657 25.6926L13.0745 48.9081L12.1053 32.457C9.92507 29.078 7.74489 25.6991 5.56458 22.3202L13.3165 9.43427Z" fill="#4574B8"/>
<path fill-rule="evenodd" clip-rule="evenodd" d="M18.7671 0.132935L19.5087 14.5264L15.2258 19.291L13.0745 48.908L23.466 21.4427L18.7671 0.132935Z" fill="#9FC4E9"/>
<path fill-rule="evenodd" clip-rule="evenodd" d="M18.7672 0.132935L15.2258 19.291L13.3166 9.43422L18.7672 0.132935Z" fill="#5489C7"/>
<path fill-rule="evenodd" clip-rule="evenodd" d="M18.7672 0.132935L22.9983 2.01624L39.4792 25.5292L18.7672 0.132935Z" fill="#CFE3F6"/>
<path fill-rule="evenodd" clip-rule="evenodd" d="M13.3165 9.43427L15.2258 19.291L5.56458 22.3202L13.3165 9.43427Z" fill="#689ED4"/>
<path fill-rule="evenodd" clip-rule="evenodd" d="M39.4792 25.5293L19.5322 14.4713L15.2258 19.291L16.5856 19.6867L23.7801 21.5227L39.4792 25.5293Z" fill="#FEFEFE" fill-opacity="0.501961"/>
<path d="M62.4776 16.284L56.9975 29.0198L51.491 16.284H48.3406V32.8069H50.5379V18.9038L56.5474 32.8069H57.4476L63.4307 18.9038V32.8069H65.628V16.284H62.4776ZM69.9432 32.8069V16.284H67.7459V32.8069H69.9432ZM84.4508 16.284V29.1755L74.2848 16.284H72.0346V32.8069H74.2319V19.6301L84.5302 32.8069H86.6481V16.284H84.4508ZM88.766 16.284V21.6533H90.9633V18.1257H100.335V16.284H88.766ZM100.15 23.4431H88.766V25.2847H100.15V23.4431ZM90.9633 27.0744H88.766V32.8069H100.335V30.9653H90.9633V27.0744ZM110.501 26.0628C112.91 25.8553 115.107 24.2212 115.107 21.2383C115.107 18.2034 112.778 16.284 109.548 16.284H102.453V22.639H104.65V18.1257H109.283C111.375 18.1257 112.831 19.3966 112.831 21.2901C112.831 23.1577 111.375 24.4806 109.283 24.4806H102.453V32.8588H104.65V26.2963H108.198L112.672 32.8588H115.266L110.501 26.0628ZM131.442 27.3338H121.593L125.326 18.5104L128.318 25.5484H130.647L126.703 16.4396H123.976L116.855 32.8069H119.37L120.932 29.1755H129.721L131.283 32.8069H133.798L131.442 27.3338ZM135.386 30.9653V32.8069H145.79V30.9653H135.386ZM137.584 29.1755V16.284H135.386V29.1755H137.584ZM149.417 20.4861C149.417 18.9297 150.953 17.8663 153.044 17.8663C154.977 17.8663 156.83 18.4629 158.154 19.8376L159.477 18.3332C157.995 16.8806 155.903 16.0246 153.23 16.0246C149.735 16.0246 147.141 17.9181 147.141 20.6417C147.141 26.5297 157.598 24.1434 157.598 28.3973C157.598 29.6943 156.592 31.2765 153.441 31.2765C150.953 31.2765 149.047 30.1352 147.908 28.8901L146.585 30.4724C148.041 32.0028 150.317 33.0922 153.362 33.0922C158.127 33.0922 159.874 30.628 159.874 28.2417C159.874 22.0683 149.417 24.1953 149.417 20.4861Z" fill="white"/>
<path fill-rule="evenodd" clip-rule="evenodd" d="M51.0142 39.5274C50.7446 39.6268 50.2964 39.8457 50.0185 40.014C49.7404 40.1824 49.3342 40.5619 49.1157 40.8574C48.8972 41.153 48.6207 41.7239 48.5014 42.1261C48.3542 42.6226 48.3092 43.1158 48.3617 43.6622C48.4041 44.1047 48.5364 44.695 48.6556 44.9739C48.7749 45.2528 49.1153 45.7392 49.4122 46.0547C49.7114 46.3728 50.2624 46.7594 50.6486 46.9221C51.1601 47.1377 51.6078 47.2147 52.3333 47.2119C53.0124 47.2093 53.509 47.1269 53.921 46.9482C54.2507 46.8055 54.7664 46.4707 55.067 46.2047C55.3675 45.9386 55.7442 45.4486 55.9039 45.1156C56.0636 44.7827 56.2298 44.1385 56.273 43.6838C56.3277 43.1106 56.2839 42.6285 56.1301 42.1102C56.0083 41.6992 55.7107 41.111 55.469 40.8033C55.2274 40.4954 54.7095 40.0674 54.3184 39.8521C53.7469 39.5375 53.4006 39.4494 52.556 39.4038C51.8678 39.3666 51.3354 39.4093 51.0142 39.5274ZM110.259 39.5363C109.989 39.6308 109.546 39.8426 109.274 40.0073C109.002 40.1719 108.608 40.5553 108.399 40.8592C108.19 41.1631 107.933 41.621 107.827 41.8767C107.72 42.1377 107.638 42.7784 107.64 43.3378C107.643 44.0517 107.723 44.5054 107.923 44.9385C108.076 45.271 108.398 45.7617 108.637 46.0291C108.877 46.2963 109.404 46.6737 109.809 46.8676C110.394 47.1484 110.745 47.2212 111.528 47.2249C112.258 47.2284 112.694 47.1521 113.218 46.9298C113.633 46.7539 114.179 46.3635 114.54 45.9858L115.155 45.3417V44.2069V43.0721H113.596H112.037V43.4706V43.8691H113.122H114.206V44.4517C114.206 44.9495 114.133 45.1042 113.701 45.5147C113.424 45.7789 112.935 46.0929 112.616 46.2125C112.202 46.3671 111.813 46.4074 111.264 46.3518C110.726 46.2975 110.327 46.1595 109.945 45.8968C109.644 45.6893 109.263 45.3239 109.098 45.0846C108.934 44.8454 108.732 44.3339 108.65 43.9479C108.543 43.4398 108.543 43.0672 108.65 42.5989C108.731 42.2429 108.926 41.7482 109.083 41.4996C109.24 41.2509 109.641 40.8779 109.974 40.6707C110.308 40.4633 110.842 40.2555 111.16 40.2087C111.529 40.1545 112.004 40.1987 112.465 40.3302C112.964 40.4722 113.355 40.702 113.717 41.0651C114.221 41.571 114.257 41.5846 114.564 41.3876C114.74 41.2745 114.884 41.1042 114.884 41.0093C114.884 40.9143 114.601 40.5922 114.254 40.2933C113.884 39.9743 113.343 39.6682 112.942 39.5515C112.566 39.4423 111.919 39.3555 111.504 39.3587C111.089 39.3619 110.528 39.4419 110.259 39.5363ZM58.0795 40.5816C58.0794 41.1843 58.0392 42.8879 57.9903 44.3672L57.9014 47.057H58.3973H58.8933V45.3967V43.7363L60.893 43.7355C61.9927 43.7351 63.1164 43.6738 63.3899 43.5995C63.6653 43.5245 64.0695 43.2606 64.2958 43.0081C64.5581 42.7155 64.7371 42.3394 64.7954 41.9586C64.8475 41.6183 64.8212 41.1721 64.7336 40.9123C64.6497 40.6631 64.4147 40.3057 64.2114 40.1177C64.008 39.9299 63.5976 39.7111 63.2994 39.6317C63.0011 39.5523 61.7047 39.4869 60.4185 39.4865L58.0799 39.4857L58.0795 40.5816ZM66.4853 43.2714V47.057H69.6712H72.8571V46.6585V46.2601H70.1457H67.4343V44.8653V43.4706H69.0019H70.5696L70.5271 43.0389L70.4846 42.6072L68.9594 42.5696L67.4343 42.532V41.4074V40.2827H70.0101H72.586V39.8842V39.4857H69.5356H66.4853V43.2714ZM74.3484 43.2635V47.057H74.7551H75.1618V45.3967V43.7363H76.7129H78.2638L79.2036 45.3634C80.1141 46.94 80.1585 46.9919 80.6351 47.0318C80.9055 47.0545 81.1269 47.0309 81.1269 46.9793C81.1269 46.9278 80.7281 46.2049 80.2404 45.373C79.7529 44.541 79.3905 43.8026 79.435 43.7319C79.4796 43.6612 79.5993 43.6034 79.701 43.6034C79.8028 43.6034 80.0819 43.4419 80.3215 43.2444C80.561 43.0469 80.8403 42.6901 80.942 42.4517C81.0437 42.2131 81.1256 41.8218 81.1239 41.582C81.1223 41.3423 81.008 40.9025 80.87 40.6047C80.6957 40.2286 80.4584 39.9853 80.0935 39.8077C79.6407 39.5875 79.2067 39.5464 76.9581 39.5111L74.3484 39.4699V43.2635ZM84.2949 40.9801C83.8737 41.802 83.0233 43.5054 82.4052 44.7657L81.2813 47.057H81.7931C82.2982 47.057 82.311 47.044 82.7666 46.0653L83.2283 45.0737L85.4324 45.0691L87.6365 45.0646L88.1396 46.0608C88.633 47.0378 88.6526 47.057 89.155 47.057H89.6672L87.7368 43.2714C85.9098 39.6888 85.7863 39.4857 85.4336 39.4857C85.0943 39.4857 84.9918 39.6204 84.2949 40.9801ZM88.1766 39.8842V40.2827H89.8034H91.4303V43.6699V47.057H91.9048H92.3793V43.6699V40.2827H94.0061H95.633V39.8842V39.4857H91.9048H88.1766V39.8842ZM96.0397 43.2714V47.057H96.5142H96.9887V43.2714V39.4857H96.5142H96.0397V43.2714ZM99.4289 43.2714V47.057H99.9007H100.373L100.409 44.2667L100.446 41.4764L102.891 44.2335C104.476 46.0206 105.441 47.0055 105.636 47.0331L105.936 47.0755V43.2807V39.4857H105.462H104.987V42.2751C104.987 43.8093 104.942 45.0606 104.886 45.0557C104.83 45.0509 103.686 43.7976 102.344 42.2708C100.93 40.6623 99.8037 39.4928 99.6662 39.4901C99.4456 39.486 99.4289 39.7528 99.4289 43.2714ZM53.1694 40.3059C53.6179 40.4166 53.9835 40.6399 54.426 41.0733C54.8684 41.5069 55.0963 41.8651 55.2092 42.3045C55.2968 42.6452 55.3685 43.0804 55.3685 43.2714C55.3685 43.4624 55.3011 43.8807 55.2188 44.201C55.1365 44.5213 54.8501 45.034 54.5825 45.3405C54.3147 45.6469 53.8483 46.0078 53.5459 46.1424C53.2434 46.2769 52.6827 46.3884 52.2997 46.39C51.7968 46.3921 51.4022 46.2899 50.8784 46.0218C50.3655 45.7593 50.0411 45.4729 49.7705 45.044C49.5227 44.6512 49.36 44.1745 49.3092 43.6918C49.2627 43.2499 49.3008 42.7007 49.4028 42.3437C49.4984 42.0088 49.8125 41.4767 50.1098 41.1457C50.4836 40.7298 50.8357 40.4927 51.2781 40.3593C51.6265 40.2543 52.0522 40.1642 52.2242 40.1592C52.3962 40.154 52.8217 40.2201 53.1694 40.3059ZM63.1584 40.4883C63.4017 40.6015 63.6702 40.8434 63.755 41.0259C63.84 41.2085 63.9094 41.4718 63.9094 41.611C63.9094 41.7502 63.8417 42.0099 63.759 42.1879C63.6761 42.366 63.4537 42.5929 63.2645 42.6922C63.0197 42.8209 62.3512 42.8729 60.941 42.8729H58.9611L58.9214 41.755C58.8996 41.1401 58.9129 40.5573 58.9509 40.4599C59.0041 40.3241 59.4532 40.2827 60.8682 40.2827C62.2555 40.2827 62.8264 40.334 63.1584 40.4883ZM79.3484 40.4299C79.5895 40.5122 79.8672 40.7435 79.9786 40.9547C80.0883 41.1623 80.1779 41.4576 80.1779 41.611C80.1779 41.7644 80.086 42.0639 79.9736 42.2769C79.8309 42.5476 79.6078 42.7064 79.2323 42.8055C78.9369 42.8835 77.9154 42.9305 76.9623 42.9101L75.2296 42.8729L75.1899 41.755C75.168 41.1401 75.1813 40.5573 75.2194 40.4599C75.2726 40.3244 75.7161 40.2827 77.103 40.2827C78.101 40.2827 79.1112 40.349 79.3484 40.4299ZM86.2775 42.406C86.7256 43.2815 87.092 44.0286 87.092 44.0664C87.092 44.1039 86.3297 44.1348 85.3981 44.1348H83.7041L84.5483 42.4744C85.0125 41.5612 85.4082 40.814 85.4278 40.814C85.4471 40.814 85.8296 41.5304 86.2775 42.406Z" fill="white"/>
<defs>
<linearGradient id="paint0_linear_87_282" x1="1.45295" y1="34.813" x2="11.6309" y2="34.813" gradientUnits="userSpaceOnUse">
<stop stop-color="#3D6DB3"/>
<stop offset="1" stop-color="#618AC4"/>
</linearGradient>
<linearGradient id="paint1_linear_87_282" x1="15.5808" y1="28.7392" x2="39.4609" y2="25.3753" gradientUnits="userSpaceOnUse">
<stop offset="0.117977" stop-color="#7096CA"/>
<stop offset="1" stop-color="#BAD2EC"/>
</linearGradient>
</defs>
</svg>
